<svg width="20" height="21" viewBox="0 0 20 21" fill="none" xmlns="http://www.w3.org/2000/svg">
<path d="M13.1591 4.69621H5.14751C4.32157 4.69621 3.85905 5.14879 3.85905 6.02042V15.5329C3.85905 16.4045 4.32157 16.8487 5.14751 16.8487H14.5549C15.3808 16.8487 15.835 16.4045 15.835 15.5329V7.47703L17.1648 6.12523V15.5999C17.1648 17.3348 16.2976 18.1981 14.5714 18.1981H5.12273C3.40479 18.1981 2.5293 17.3348 2.5293 15.5999V5.94499C2.5293 4.21849 3.40479 3.34686 5.12273 3.34686H14.4888L13.1591 4.69621Z" fill="#8E8E93" fill-opacity="0.85"/>
<path d="M8.12939 12.767L9.73994 12.0546L17.4542 4.2351L16.3226 3.10366L8.6167 10.9232L7.87335 12.4988C7.80728 12.6413 7.97246 12.8341 8.12939 12.767ZM18.0654 3.62329L18.66 3.00309C18.9408 2.70137 18.9408 2.29908 18.66 2.02251L18.4701 1.82137C18.214 1.56156 17.8093 1.59508 17.5368 1.86327L16.9339 2.4667L18.0654 3.62329Z" fill="#8E8E93" fill-opacity="0.85"/>
</svg>
