<svg width="20" height="20" viewBox="0 0 20 20" fill="none" xmlns="http://www.w3.org/2000/svg">
<path d="M2 8.26683C2 11.835 4.93142 14.7382 8.5343 14.7382C9.95907 14.7382 11.261 14.2841 12.3337 13.5218L16.3624 17.5197C16.5507 17.7063 16.7964 17.7955 17.0584 17.7955C17.6151 17.7955 18 17.3818 18 16.8385C18 16.579 17.9017 16.3438 17.7298 16.1736L13.7257 12.1837C14.5691 11.0971 15.0686 9.74275 15.0686 8.26683C15.0686 4.69866 12.1371 1.79547 8.5343 1.79547C4.93142 1.79547 2 4.69866 2 8.26683ZM3.40021 8.26683C3.40021 5.46095 5.70113 3.18219 8.5343 3.18219C11.3675 3.18219 13.6684 5.46095 13.6684 8.26683C13.6684 11.0727 11.3675 13.3515 8.5343 13.3515C5.70113 13.3515 3.40021 11.0727 3.40021 8.26683Z" fill="#A4A4A8"/>
</svg>
