<svg width="20" height="20" viewBox="0 0 20 20" fill="none" xmlns="http://www.w3.org/2000/svg">
<g id="Group">
<path id="Vector" d="M9.82186 19.9903C15.2432 19.9903 19.6437 15.5121 19.6437 9.99512C19.6437 4.47821 15.2432 0 9.82186 0C4.40058 0 0 4.47821 0 9.99512C0 15.5121 4.40058 19.9903 9.82186 19.9903ZM9.82186 18.3244C5.2961 18.3244 1.63698 14.6007 1.63698 9.99512C1.63698 5.38952 5.2961 1.66586 9.82186 1.66586C14.3476 1.66586 18.0067 5.38952 18.0067 9.99512C18.0067 14.6007 14.3476 18.3244 9.82186 18.3244Z" fill="#88888D"/>
<path id="Vector_2" d="M6.37473 5.41892L3.99629 7.8883C3.89037 8.01569 3.80371 8.20187 3.80371 8.33906C3.80371 8.70163 4.07333 8.976 4.42962 8.976C4.59331 8.976 4.74738 8.89761 4.86293 8.78002L5.85475 7.73152L6.22066 7.32975L6.2014 7.8099V14.1597C6.2014 14.5125 6.47102 14.7771 6.82731 14.7771C7.19322 14.7771 7.4532 14.5125 7.4532 14.1597V7.80011L7.43395 7.32975L7.79987 7.73152L8.80131 8.78983C8.91686 8.90741 9.07093 8.976 9.23462 8.976C9.5909 8.976 9.84127 8.71143 9.84127 8.33906C9.84127 8.18228 9.76423 7.99609 9.65831 7.8883L7.28951 5.41892C7.0584 5.17394 6.65398 5.13475 6.37473 5.41892ZM13.2597 14.5909L15.6188 12.1313C15.7344 12.0039 15.821 11.8275 15.821 11.6708C15.821 11.2984 15.561 11.0437 15.2048 11.0437C15.0314 11.0437 14.8677 11.1122 14.7618 11.2298L13.77 12.2686L13.4041 12.6703L13.4234 12.2098V5.85008C13.4234 5.48751 13.1537 5.22294 12.7974 5.22294C12.4412 5.22294 12.1716 5.48751 12.1716 5.85008V12.2195L12.1908 12.6801L11.8249 12.2686L10.8331 11.2298C10.7079 11.1025 10.5635 11.0437 10.3901 11.0437C10.0242 11.0437 9.7835 11.2984 9.7835 11.6708C9.7835 11.8177 9.85089 11.9941 9.95686 12.1313L12.3256 14.5909C12.5567 14.8261 12.9997 14.8653 13.2597 14.5909Z" fill="#88888D"/>
</g>
</svg>
